<mxfile host="Electron" agent="Mozilla/5.0 (X11; Linux x86_64) AppleWebKit/537.36 (KHTML, like Gecko) draw.io/26.0.16 Chrome/132.0.6834.196 Electron/34.2.0 Safari/537.36" version="26.0.16" pages="2">
  <diagram name="Page-1" id="i-Jr3PjUj6tLASvhH4dH">
    <mxGraphModel dx="1720" dy="524" grid="1" gridSize="10" guides="1" tooltips="1" connect="1" arrows="1" fold="1" page="1" pageScale="1" pageWidth="850" pageHeight="1100" math="0" shadow="0">
      <root>
        <mxCell id="0" />
        <mxCell id="1" parent="0" />
        <mxCell id="fUXaf3c8tL8dAXFwkJp--23" value="" style="endArrow=none;html=1;rounded=0;entryX=0.567;entryY=0.967;entryDx=0;entryDy=0;entryPerimeter=0;" parent="1" target="fUXaf3c8tL8dAXFwkJp--24" edge="1">
          <mxGeometry width="50" height="50" relative="1" as="geometry">
            <mxPoint x="380" y="160" as="sourcePoint" />
            <mxPoint x="410" y="130" as="targetPoint" />
          </mxGeometry>
        </mxCell>
        <mxCell id="fUXaf3c8tL8dAXFwkJp--24" value="8" style="text;html=1;align=center;verticalAlign=middle;resizable=0;points=[];autosize=1;strokeColor=none;fillColor=none;container=0;" parent="1" vertex="1">
          <mxGeometry x="385" y="110" width="30" height="30" as="geometry" />
        </mxCell>
        <UserObject label="&lt;b&gt;&lt;font style=&quot;font-size: 17px;&quot;&gt;rx_controller&lt;/font&gt;&lt;/b&gt;" link="data:page/id,hqcacZaWT376cXRWCEjd" id="fUXaf3c8tL8dAXFwkJp--25">
          <mxCell style="rounded=0;whiteSpace=wrap;html=1;container=0;" parent="1" vertex="1">
            <mxGeometry x="60" y="760" width="1030" height="180" as="geometry" />
          </mxCell>
        </UserObject>
        <mxCell id="Ki-iK-O01lwPalJUnk5m-1" value="" style="rounded=0;whiteSpace=wrap;html=1;direction=south;container=0;" parent="1" vertex="1">
          <mxGeometry x="640" y="300" width="60" height="120" as="geometry" />
        </mxCell>
        <mxCell id="Ki-iK-O01lwPalJUnk5m-2" value="Â UART-STATUS" style="text;align=center;verticalAlign=middle;rounded=0;whiteSpace=wrap;container=0;" parent="1" vertex="1">
          <mxGeometry x="640" y="345" width="60" height="30" as="geometry" />
        </mxCell>
        <mxCell id="Ki-iK-O01lwPalJUnk5m-5" value="" style="triangle;whiteSpace=wrap;html=1;container=0;" parent="1" vertex="1">
          <mxGeometry x="640" y="400" width="10" height="20" as="geometry" />
        </mxCell>
        <mxCell id="Ki-iK-O01lwPalJUnk5m-15" value="" style="endArrow=classic;html=1;rounded=0;strokeColor=light-dark(#fa05d9, #ededed);strokeWidth=3;entryX=0.37;entryY=0;entryDx=0;entryDy=0;entryPerimeter=0;exitX=1;exitY=0.25;exitDx=0;exitDy=0;" parent="1" source="fUXaf3c8tL8dAXFwkJp--37" target="fUXaf3c8tL8dAXFwkJp--25" edge="1">
          <mxGeometry width="50" height="50" relative="1" as="geometry">
            <mxPoint x="440" y="550" as="sourcePoint" />
            <mxPoint x="440" y="620" as="targetPoint" />
            <Array as="points">
              <mxPoint x="441" y="553" />
            </Array>
          </mxGeometry>
        </mxCell>
        <mxCell id="Ki-iK-O01lwPalJUnk5m-19" value="baud_rate" style="text;html=1;align=center;verticalAlign=middle;whiteSpace=wrap;rounded=0;rotation=90;container=0;" parent="1" vertex="1">
          <mxGeometry x="395" y="690" width="60" height="30" as="geometry" />
        </mxCell>
        <mxCell id="Ki-iK-O01lwPalJUnk5m-55" value="" style="endArrow=classic;html=1;rounded=0;" parent="1" edge="1">
          <mxGeometry width="50" height="50" relative="1" as="geometry">
            <mxPoint x="400" y="150" as="sourcePoint" />
            <mxPoint x="420" y="260" as="targetPoint" />
            <Array as="points">
              <mxPoint x="400" y="260" />
            </Array>
          </mxGeometry>
        </mxCell>
        <mxCell id="Ki-iK-O01lwPalJUnk5m-56" value="" style="endArrow=classic;html=1;rounded=0;" parent="1" edge="1">
          <mxGeometry width="50" height="50" relative="1" as="geometry">
            <mxPoint x="360" y="360" as="sourcePoint" />
            <mxPoint x="530" y="320" as="targetPoint" />
            <Array as="points">
              <mxPoint x="530" y="360" />
            </Array>
          </mxGeometry>
        </mxCell>
        <mxCell id="bs1XhUfaUdJF7QMj1rCU-5" value="parity" style="edgeLabel;html=1;align=center;verticalAlign=middle;resizable=0;points=[];container=0;" parent="Ki-iK-O01lwPalJUnk5m-56" vertex="1" connectable="0">
          <mxGeometry x="-0.6992" relative="1" as="geometry">
            <mxPoint x="-62" as="offset" />
          </mxGeometry>
        </mxCell>
        <mxCell id="Ki-iK-O01lwPalJUnk5m-57" value="" style="ellipse;whiteSpace=wrap;html=1;container=0;" parent="1" vertex="1">
          <mxGeometry x="560" y="265" width="16" height="30" as="geometry" />
        </mxCell>
        <mxCell id="Ki-iK-O01lwPalJUnk5m-60" value="" style="edgeStyle=orthogonalEdgeStyle;rounded=0;orthogonalLoop=1;jettySize=auto;html=1;entryX=0.108;entryY=0.983;entryDx=0;entryDy=0;entryPerimeter=0;" parent="1" source="Ki-iK-O01lwPalJUnk5m-58" target="Ki-iK-O01lwPalJUnk5m-1" edge="1">
          <mxGeometry relative="1" as="geometry">
            <Array as="points">
              <mxPoint x="590" y="280" />
              <mxPoint x="590" y="313" />
            </Array>
          </mxGeometry>
        </mxCell>
        <mxCell id="Ki-iK-O01lwPalJUnk5m-58" value="=" style="text;html=1;align=center;verticalAlign=middle;whiteSpace=wrap;rounded=0;container=0;" parent="1" vertex="1">
          <mxGeometry x="558" y="270" width="20" height="20" as="geometry" />
        </mxCell>
        <mxCell id="Ki-iK-O01lwPalJUnk5m-59" value="" style="endArrow=classic;html=1;rounded=0;" parent="1" edge="1">
          <mxGeometry width="50" height="50" relative="1" as="geometry">
            <mxPoint x="540" y="280" as="sourcePoint" />
            <mxPoint x="560" y="280" as="targetPoint" />
          </mxGeometry>
        </mxCell>
        <mxCell id="Ki-iK-O01lwPalJUnk5m-63" value="" style="endArrow=classic;html=1;rounded=0;entryX=0.5;entryY=1;entryDx=0;entryDy=0;exitX=0.42;exitY=-0.006;exitDx=0;exitDy=0;exitPerimeter=0;" parent="1" source="fUXaf3c8tL8dAXFwkJp--25" target="Ki-iK-O01lwPalJUnk5m-57" edge="1">
          <mxGeometry width="50" height="50" relative="1" as="geometry">
            <mxPoint x="530" y="360" as="sourcePoint" />
            <mxPoint x="550" y="310" as="targetPoint" />
            <Array as="points">
              <mxPoint x="493" y="370" />
              <mxPoint x="570" y="370" />
            </Array>
          </mxGeometry>
        </mxCell>
        <mxCell id="9NU3JOYnfdoBCGCPCBDB-3" value="parity" style="edgeLabel;html=1;align=center;verticalAlign=middle;resizable=0;points=[];container=0;" parent="Ki-iK-O01lwPalJUnk5m-63" vertex="1" connectable="0">
          <mxGeometry x="0.2192" y="1" relative="1" as="geometry">
            <mxPoint x="-17" y="-49" as="offset" />
          </mxGeometry>
        </mxCell>
        <mxCell id="Ki-iK-O01lwPalJUnk5m-64" value="" style="endArrow=none;html=1;rounded=0;" parent="1" edge="1">
          <mxGeometry width="50" height="50" relative="1" as="geometry">
            <mxPoint x="567" y="285" as="sourcePoint" />
            <mxPoint x="569" y="275" as="targetPoint" />
          </mxGeometry>
        </mxCell>
        <mxCell id="Ki-iK-O01lwPalJUnk5m-75" value="" style="endArrow=classic;html=1;rounded=0;strokeColor=light-dark(#06f92f, #ededed);strokeWidth=3;" parent="1" edge="1">
          <mxGeometry width="50" height="50" relative="1" as="geometry">
            <mxPoint x="669.5" y="760" as="sourcePoint" />
            <mxPoint x="669.5" y="690" as="targetPoint" />
          </mxGeometry>
        </mxCell>
        <mxCell id="9NU3JOYnfdoBCGCPCBDB-2" value="&lt;span style=&quot;font-size: 12px; text-wrap-mode: wrap; background-color: rgb(251, 251, 251);&quot;&gt;fifo_Rx_Valid&lt;/span&gt;" style="edgeLabel;html=1;align=center;verticalAlign=middle;resizable=0;points=[];rotation=90;container=0;" parent="Ki-iK-O01lwPalJUnk5m-75" vertex="1" connectable="0">
          <mxGeometry x="0.1429" y="-5" relative="1" as="geometry">
            <mxPoint x="16" y="-7" as="offset" />
          </mxGeometry>
        </mxCell>
        <mxCell id="Ki-iK-O01lwPalJUnk5m-76" value="" style="endArrow=classic;html=1;rounded=0;strokeColor=light-dark(#0fc3ff, #ededed);strokeWidth=3;entryX=0.75;entryY=1;entryDx=0;entryDy=0;exitX=0.449;exitY=0.022;exitDx=0;exitDy=0;exitPerimeter=0;" parent="1" source="fUXaf3c8tL8dAXFwkJp--25" target="Ki-iK-O01lwPalJUnk5m-1" edge="1">
          <mxGeometry width="50" height="50" relative="1" as="geometry">
            <mxPoint x="520" y="440" as="sourcePoint" />
            <mxPoint x="480" y="630" as="targetPoint" />
            <Array as="points">
              <mxPoint x="520" y="390" />
            </Array>
          </mxGeometry>
        </mxCell>
        <mxCell id="Ki-iK-O01lwPalJUnk5m-77" value="stop bit error" style="text;html=1;align=center;verticalAlign=middle;whiteSpace=wrap;rounded=0;container=0;" parent="1" vertex="1">
          <mxGeometry x="540" y="365" width="70" height="30" as="geometry" />
        </mxCell>
        <mxCell id="Ki-iK-O01lwPalJUnk5m-79" value="" style="endArrow=classic;html=1;rounded=0;strokeColor=light-dark(#FFF847,#EDEDED);strokeWidth=3;exitX=0.583;exitY=-0.05;exitDx=0;exitDy=0;exitPerimeter=0;entryX=0.744;entryY=0.006;entryDx=0;entryDy=0;entryPerimeter=0;" parent="1" target="fUXaf3c8tL8dAXFwkJp--25" edge="1">
          <mxGeometry width="50" height="50" relative="1" as="geometry">
            <mxPoint x="760" y="535" as="sourcePoint" />
            <mxPoint x="827" y="605" as="targetPoint" />
            <Array as="points">
              <mxPoint x="827" y="535" />
            </Array>
          </mxGeometry>
        </mxCell>
        <mxCell id="Ki-iK-O01lwPalJUnk5m-81" value="bit_count" style="text;html=1;align=center;verticalAlign=middle;resizable=0;points=[];autosize=1;strokeColor=none;fillColor=none;container=0;" parent="1" vertex="1">
          <mxGeometry x="760" y="510" width="70" height="30" as="geometry" />
        </mxCell>
        <mxCell id="Ki-iK-O01lwPalJUnk5m-85" value="" style="endArrow=classic;html=1;rounded=0;strokeColor=light-dark(#B7A4B4,#EDEDED);strokeWidth=3;entryX=0.75;entryY=1;entryDx=0;entryDy=0;" parent="1" target="fUXaf3c8tL8dAXFwkJp--46" edge="1">
          <mxGeometry width="50" height="50" relative="1" as="geometry">
            <mxPoint x="380" y="430" as="sourcePoint" />
            <mxPoint x="610" y="585" as="targetPoint" />
            <Array as="points">
              <mxPoint x="470" y="430" />
              <mxPoint x="470" y="608" />
            </Array>
          </mxGeometry>
        </mxCell>
        <mxCell id="Ki-iK-O01lwPalJUnk5m-90" value="bit_count_enable" style="text;html=1;align=center;verticalAlign=middle;whiteSpace=wrap;rounded=0;container=0;" parent="1" vertex="1">
          <mxGeometry x="576" y="580" width="60" height="30" as="geometry" />
        </mxCell>
        <mxCell id="Ki-iK-O01lwPalJUnk5m-95" value="baud_rate enable" style="text;html=1;align=center;verticalAlign=middle;whiteSpace=wrap;rounded=0;container=0;" parent="1" vertex="1">
          <mxGeometry x="200" y="600" width="110" height="20" as="geometry" />
        </mxCell>
        <mxCell id="XD9MO1sM5KXUhL5Tx8Wz-1" value="" style="endArrow=classic;html=1;rounded=0;entryX=0;entryY=0.5;entryDx=0;entryDy=0;" parent="1" target="fUXaf3c8tL8dAXFwkJp--25" edge="1">
          <mxGeometry width="50" height="50" relative="1" as="geometry">
            <mxPoint x="-10" y="850" as="sourcePoint" />
            <mxPoint x="60" y="790" as="targetPoint" />
          </mxGeometry>
        </mxCell>
        <mxCell id="XD9MO1sM5KXUhL5Tx8Wz-2" value="uart_rx_en" style="edgeLabel;html=1;align=center;verticalAlign=middle;resizable=0;points=[];container=0;" parent="XD9MO1sM5KXUhL5Tx8Wz-1" vertex="1" connectable="0">
          <mxGeometry x="-0.0667" y="-2" relative="1" as="geometry">
            <mxPoint x="-8" y="-12" as="offset" />
          </mxGeometry>
        </mxCell>
        <mxCell id="vYeH1huUzE66C1ftF_dd-1" value="" style="endArrow=classic;html=1;rounded=0;entryX=0.375;entryY=1.033;entryDx=0;entryDy=0;entryPerimeter=0;strokeColor=light-dark(#b3a55b, #ededed);strokeWidth=3;exitX=0.508;exitY=0.006;exitDx=0;exitDy=0;exitPerimeter=0;" parent="1" source="fUXaf3c8tL8dAXFwkJp--25" target="Ki-iK-O01lwPalJUnk5m-1" edge="1">
          <mxGeometry width="50" height="50" relative="1" as="geometry">
            <mxPoint x="590" y="750" as="sourcePoint" />
            <mxPoint x="450" y="560" as="targetPoint" />
            <Array as="points">
              <mxPoint x="580" y="345" />
            </Array>
          </mxGeometry>
        </mxCell>
        <mxCell id="vYeH1huUzE66C1ftF_dd-2" value="uart_status_enable" style="edgeLabel;html=1;align=center;verticalAlign=middle;resizable=0;points=[];rotation=90;container=0;" parent="vYeH1huUzE66C1ftF_dd-1" vertex="1" connectable="0">
          <mxGeometry x="0.0682" relative="1" as="geometry">
            <mxPoint x="-11" y="-20" as="offset" />
          </mxGeometry>
        </mxCell>
        <mxCell id="Ki-iK-O01lwPalJUnk5m-94" value="" style="endArrow=classic;html=1;rounded=0;strokeColor=light-dark(#316d3d, #ededed);strokeWidth=3;entryX=0.75;entryY=1;entryDx=0;entryDy=0;exitX=0.145;exitY=0;exitDx=0;exitDy=0;exitPerimeter=0;" parent="1" source="fUXaf3c8tL8dAXFwkJp--25" target="fUXaf3c8tL8dAXFwkJp--32" edge="1">
          <mxGeometry width="50" height="50" relative="1" as="geometry">
            <mxPoint x="250" y="620" as="sourcePoint" />
            <mxPoint x="330" y="620" as="targetPoint" />
            <Array as="points">
              <mxPoint x="210" y="620" />
            </Array>
          </mxGeometry>
        </mxCell>
        <mxCell id="9NU3JOYnfdoBCGCPCBDB-1" value="PARITY" style="rounded=0;whiteSpace=wrap;html=1;container=0;" parent="1" vertex="1">
          <mxGeometry x="295" y="345" width="70" height="30" as="geometry" />
        </mxCell>
        <mxCell id="9NU3JOYnfdoBCGCPCBDB-4" value="" style="endArrow=classic;html=1;rounded=0;" parent="1" edge="1">
          <mxGeometry width="50" height="50" relative="1" as="geometry">
            <mxPoint x="700" y="204.5" as="sourcePoint" />
            <mxPoint x="840" y="204.5" as="targetPoint" />
          </mxGeometry>
        </mxCell>
        <mxCell id="9NU3JOYnfdoBCGCPCBDB-5" value="Tx_Valid" style="edgeLabel;html=1;align=center;verticalAlign=middle;resizable=0;points=[];container=0;" parent="9NU3JOYnfdoBCGCPCBDB-4" vertex="1" connectable="0">
          <mxGeometry x="0.1" y="1" relative="1" as="geometry">
            <mxPoint y="-9" as="offset" />
          </mxGeometry>
        </mxCell>
        <mxCell id="9NU3JOYnfdoBCGCPCBDB-6" value="" style="endArrow=classic;html=1;rounded=0;exitX=0.25;exitY=0;exitDx=0;exitDy=0;" parent="1" source="fUXaf3c8tL8dAXFwkJp--18" edge="1">
          <mxGeometry width="50" height="50" relative="1" as="geometry">
            <mxPoint x="720" y="170" as="sourcePoint" />
            <mxPoint x="840" y="160" as="targetPoint" />
          </mxGeometry>
        </mxCell>
        <mxCell id="9NU3JOYnfdoBCGCPCBDB-7" value="Tx_Data" style="edgeLabel;html=1;align=center;verticalAlign=middle;resizable=0;points=[];container=0;" parent="9NU3JOYnfdoBCGCPCBDB-6" vertex="1" connectable="0">
          <mxGeometry x="-0.0143" y="1" relative="1" as="geometry">
            <mxPoint x="1" y="-9" as="offset" />
          </mxGeometry>
        </mxCell>
        <mxCell id="9NU3JOYnfdoBCGCPCBDB-12" value="" style="endArrow=classic;html=1;rounded=0;entryX=0.021;entryY=-0.05;entryDx=0;entryDy=0;entryPerimeter=0;" parent="1" edge="1">
          <mxGeometry width="50" height="50" relative="1" as="geometry">
            <mxPoint x="-30" y="801" as="sourcePoint" />
            <mxPoint x="60.000000000000114" y="801" as="targetPoint" />
          </mxGeometry>
        </mxCell>
        <mxCell id="4JYBzS8MlPFjThcRtH35-1" value="clk" style="edgeLabel;html=1;align=center;verticalAlign=middle;resizable=0;points=[];container=0;" parent="9NU3JOYnfdoBCGCPCBDB-12" vertex="1" connectable="0">
          <mxGeometry x="0.0889" y="2" relative="1" as="geometry">
            <mxPoint x="-9" y="-9" as="offset" />
          </mxGeometry>
        </mxCell>
        <mxCell id="4JYBzS8MlPFjThcRtH35-2" value="" style="endArrow=classic;html=1;rounded=0;" parent="1" edge="1">
          <mxGeometry width="50" height="50" relative="1" as="geometry">
            <mxPoint x="-40" y="900" as="sourcePoint" />
            <mxPoint x="60" y="900" as="targetPoint" />
          </mxGeometry>
        </mxCell>
        <mxCell id="4JYBzS8MlPFjThcRtH35-3" value="rst_n" style="edgeLabel;html=1;align=center;verticalAlign=middle;resizable=0;points=[];container=0;" parent="4JYBzS8MlPFjThcRtH35-2" vertex="1" connectable="0">
          <mxGeometry x="-0.46" y="3" relative="1" as="geometry">
            <mxPoint x="33" y="-7" as="offset" />
          </mxGeometry>
        </mxCell>
        <mxCell id="4JYBzS8MlPFjThcRtH35-4" value="" style="endArrow=classic;html=1;rounded=0;exitX=0.25;exitY=0;exitDx=0;exitDy=0;" parent="1" source="Ki-iK-O01lwPalJUnk5m-1" edge="1">
          <mxGeometry width="50" height="50" relative="1" as="geometry">
            <mxPoint x="770" y="320" as="sourcePoint" />
            <mxPoint x="840" y="330" as="targetPoint" />
          </mxGeometry>
        </mxCell>
        <mxCell id="4JYBzS8MlPFjThcRtH35-6" value="Parity_error" style="edgeLabel;html=1;align=center;verticalAlign=middle;resizable=0;points=[];container=0;" parent="4JYBzS8MlPFjThcRtH35-4" vertex="1" connectable="0">
          <mxGeometry x="-0.2857" y="4" relative="1" as="geometry">
            <mxPoint x="3" y="-6" as="offset" />
          </mxGeometry>
        </mxCell>
        <mxCell id="4JYBzS8MlPFjThcRtH35-5" value="" style="endArrow=classic;html=1;rounded=0;exitX=0.25;exitY=0;exitDx=0;exitDy=0;" parent="1" edge="1">
          <mxGeometry width="50" height="50" relative="1" as="geometry">
            <mxPoint x="700" y="365" as="sourcePoint" />
            <mxPoint x="840" y="365" as="targetPoint" />
          </mxGeometry>
        </mxCell>
        <mxCell id="4JYBzS8MlPFjThcRtH35-7" value="stop_bit_error" style="edgeLabel;html=1;align=center;verticalAlign=middle;resizable=0;points=[];container=0;" parent="4JYBzS8MlPFjThcRtH35-5" vertex="1" connectable="0">
          <mxGeometry x="-0.2429" y="4" relative="1" as="geometry">
            <mxPoint x="7" y="-11" as="offset" />
          </mxGeometry>
        </mxCell>
        <mxCell id="ezS9RSzxf8ny4oIwRt-g-1" value="" style="endArrow=none;html=1;rounded=0;entryX=0.567;entryY=0.967;entryDx=0;entryDy=0;entryPerimeter=0;" parent="1" edge="1">
          <mxGeometry width="50" height="50" relative="1" as="geometry">
            <mxPoint x="574" y="728" as="sourcePoint" />
            <mxPoint x="596" y="707" as="targetPoint" />
          </mxGeometry>
        </mxCell>
        <mxCell id="ezS9RSzxf8ny4oIwRt-g-2" value="2" style="edgeLabel;html=1;align=center;verticalAlign=middle;resizable=0;points=[];container=0;" parent="ezS9RSzxf8ny4oIwRt-g-1" vertex="1" connectable="0">
          <mxGeometry x="0.6259" y="1" relative="1" as="geometry">
            <mxPoint y="-12" as="offset" />
          </mxGeometry>
        </mxCell>
        <mxCell id="fUXaf3c8tL8dAXFwkJp--13" value="shift_reg" style="text;html=1;align=center;verticalAlign=middle;whiteSpace=wrap;rounded=0;container=0;" parent="1" vertex="1">
          <mxGeometry x="290" y="250" width="60" height="30" as="geometry" />
        </mxCell>
        <mxCell id="fUXaf3c8tL8dAXFwkJp--2" value="" style="rounded=0;whiteSpace=wrap;html=1;direction=south;container=0;" parent="1" vertex="1">
          <mxGeometry x="290" y="130" width="60" height="120" as="geometry" />
        </mxCell>
        <mxCell id="fUXaf3c8tL8dAXFwkJp--3" value="" style="endArrow=classic;html=1;rounded=0;" parent="1" edge="1">
          <mxGeometry width="50" height="50" relative="1" as="geometry">
            <mxPoint x="120" y="150" as="sourcePoint" />
            <mxPoint x="290" y="150" as="targetPoint" />
          </mxGeometry>
        </mxCell>
        <mxCell id="fUXaf3c8tL8dAXFwkJp--26" value="" style="endArrow=classic;html=1;rounded=0;strokeColor=light-dark(#f20707, #ededed);strokeWidth=3;entryX=0.08;entryY=-0.011;entryDx=0;entryDy=0;entryPerimeter=0;" parent="1" target="fUXaf3c8tL8dAXFwkJp--25" edge="1">
          <mxGeometry width="50" height="50" relative="1" as="geometry">
            <mxPoint x="140" y="150" as="sourcePoint" />
            <mxPoint x="140" y="220" as="targetPoint" />
          </mxGeometry>
        </mxCell>
        <mxCell id="fUXaf3c8tL8dAXFwkJp--29" value="&lt;span style=&quot;color: rgb(0, 0, 0); font-family: Helvetica; font-size: 12px; font-style: normal; font-variant-ligatures: normal; font-variant-caps: normal; font-weight: 400; letter-spacing: normal; orphans: 2; text-align: center; text-indent: 0px; text-transform: none; widows: 2; word-spacing: 0px; -webkit-text-stroke-width: 0px; white-space: nowrap; background-color: rgb(251, 251, 251); text-decoration-thickness: initial; text-decoration-style: initial; text-decoration-color: initial; display: inline !important; float: none;&quot;&gt;data_In&lt;/span&gt;" style="text;whiteSpace=wrap;html=1;rotation=90;container=0;" parent="1" vertex="1">
          <mxGeometry x="135" y="160" width="40" height="30" as="geometry" />
        </mxCell>
        <mxCell id="Ki-iK-O01lwPalJUnk5m-7" value="" style="triangle;whiteSpace=wrap;html=1;container=0;" parent="1" vertex="1">
          <mxGeometry x="290" y="230" width="10" height="20" as="geometry" />
        </mxCell>
        <mxCell id="Ki-iK-O01lwPalJUnk5m-100" value="" style="endArrow=classic;html=1;rounded=0;strokeColor=light-dark(#983434, #ededed);strokeWidth=3;exitX=1;exitY=0.5;exitDx=0;exitDy=0;" parent="1" source="S0rmG3F3ooWsM7sMJUz2-13" edge="1">
          <mxGeometry width="50" height="50" relative="1" as="geometry">
            <mxPoint x="210" y="200" as="sourcePoint" />
            <mxPoint x="290" y="200" as="targetPoint" />
            <Array as="points">
              <mxPoint x="380" y="430" />
              <mxPoint x="380" y="320" />
              <mxPoint x="240" y="320" />
              <mxPoint x="240" y="200" />
            </Array>
          </mxGeometry>
        </mxCell>
        <mxCell id="daDGux0d0mD3_R8pfQR6-1" value="&lt;span style=&quot;font-family: &amp;quot;Droid Sans Mono&amp;quot;, &amp;quot;monospace&amp;quot;, monospace; font-size: 14px; white-space-collapse: preserve;&quot;&gt;rx_shift_reg_en&lt;/span&gt;" style="edgeLabel;html=1;align=center;verticalAlign=middle;resizable=0;points=[];fontColor=#000000;labelBackgroundColor=none;rotation=90;container=0;" parent="Ki-iK-O01lwPalJUnk5m-100" vertex="1" connectable="0">
          <mxGeometry x="0.8894" y="1" relative="1" as="geometry">
            <mxPoint x="-33" y="70" as="offset" />
          </mxGeometry>
        </mxCell>
        <mxCell id="fUXaf3c8tL8dAXFwkJp--17" value="&lt;span style=&quot;color: rgba(0, 0, 0, 0); font-family: monospace; font-size: 0px; text-align: start; text-wrap-mode: nowrap;&quot;&gt;%3CmxGraphModel%3E%3Croot%3E%3CmxCell%20id%3D%220%22%2F%3E%3CmxCell%20id%3D%221%22%20parent%3D%220%22%2F%3E%3CmxCell%20id%3D%222%22%20value%3D%22Data%20register%22%20style%3D%22text%3Bhtml%3D1%3Balign%3Dcenter%3BverticalAlign%3Dmiddle%3BwhiteSpace%3Dwrap%3Brounded%3D0%3B%22%20vertex%3D%221%22%20parent%3D%221%22%3E%3CmxGeometry%20x%3D%22275%22%20y%3D%22200%22%20width%3D%2260%22%20height%3D%2230%22%20as%3D%22geometry%22%2F%3E%3C%2FmxCell%3E%3C%2Froot%3E%3C%2FmxGraphModel%3E&lt;/span&gt;&lt;span style=&quot;color: rgba(0, 0, 0, 0); font-family: monospace; font-size: 0px; text-align: start; text-wrap-mode: nowrap;&quot;&gt;%3CmxGraphModel%3E%3Croot%3E%3CmxCell%20id%3D%220%22%2F%3E%3CmxCell%20id%3D%221%22%20parent%3D%220%22%2F%3E%3CmxCell%20id%3D%222%22%20value%3D%22Data%20register%22%20style%3D%22text%3Bhtml%3D1%3Balign%3Dcenter%3BverticalAlign%3Dmiddle%3BwhiteSpace%3Dwrap%3Brounded%3D0%3B%22%20vertex%3D%221%22%20parent%3D%221%22%3E%3CmxGeometry%20x%3D%22275%22%20y%3D%22200%22%20width%3D%2260%22%20height%3D%2230%22%20as%3D%22geometry%22%2F%3E%3C%2FmxCell%3E%3C%2Froot%3E%3C%2FmxGraphModel%3E&lt;/span&gt;" style="text;html=1;align=center;verticalAlign=middle;whiteSpace=wrap;rounded=0;container=0;" parent="1" vertex="1">
          <mxGeometry x="640" y="250" width="60" height="30" as="geometry" />
        </mxCell>
        <mxCell id="fUXaf3c8tL8dAXFwkJp--18" value="rx_fifo" style="rounded=0;whiteSpace=wrap;html=1;direction=south;container=0;" parent="1" vertex="1">
          <mxGeometry x="640" y="130" width="60" height="120" as="geometry" />
        </mxCell>
        <mxCell id="fUXaf3c8tL8dAXFwkJp--19" value="" style="endArrow=classic;html=1;rounded=0;exitX=0.167;exitY=0;exitDx=0;exitDy=0;exitPerimeter=0;" parent="1" source="fUXaf3c8tL8dAXFwkJp--2" edge="1">
          <mxGeometry width="50" height="50" relative="1" as="geometry">
            <mxPoint x="470" y="150" as="sourcePoint" />
            <mxPoint x="640" y="150" as="targetPoint" />
            <Array as="points">
              <mxPoint x="520" y="150" />
            </Array>
          </mxGeometry>
        </mxCell>
        <mxCell id="9NU3JOYnfdoBCGCPCBDB-8" value="&lt;span style=&quot;font-size: 12px; text-wrap-mode: wrap; background-color: rgb(251, 251, 251);&quot;&gt;fifo_Rx_Data&lt;/span&gt;" style="edgeLabel;html=1;align=center;verticalAlign=middle;resizable=0;points=[];container=0;" parent="fUXaf3c8tL8dAXFwkJp--19" vertex="1" connectable="0">
          <mxGeometry x="0.0828" y="3" relative="1" as="geometry">
            <mxPoint x="8" y="-7" as="offset" />
          </mxGeometry>
        </mxCell>
        <mxCell id="Ki-iK-O01lwPalJUnk5m-72" value="" style="endArrow=classic;html=1;rounded=0;strokeColor=light-dark(#06f92f, #ededed);strokeWidth=3;" parent="1" edge="1">
          <mxGeometry width="50" height="50" relative="1" as="geometry">
            <mxPoint x="560" y="225" as="sourcePoint" />
            <mxPoint x="640" y="185" as="targetPoint" />
            <Array as="points">
              <mxPoint x="560" y="185" />
            </Array>
          </mxGeometry>
        </mxCell>
        <mxCell id="Ki-iK-O01lwPalJUnk5m-73" value="fifo_Rx_Valid" style="text;html=1;align=center;verticalAlign=middle;whiteSpace=wrap;rounded=0;container=0;" parent="1" vertex="1">
          <mxGeometry x="555" y="160" width="60" height="30" as="geometry" />
        </mxCell>
        <mxCell id="9NU3JOYnfdoBCGCPCBDB-9" value="" style="endArrow=classic;html=1;rounded=0;" parent="1" edge="1">
          <mxGeometry width="50" height="50" relative="1" as="geometry">
            <mxPoint x="840" y="100" as="sourcePoint" />
            <mxPoint x="640" y="140" as="targetPoint" />
            <Array as="points">
              <mxPoint x="600" y="100" />
              <mxPoint x="600" y="140" />
            </Array>
          </mxGeometry>
        </mxCell>
        <mxCell id="9NU3JOYnfdoBCGCPCBDB-10" value="Tx_Ready" style="edgeLabel;html=1;align=center;verticalAlign=middle;resizable=0;points=[];container=0;" parent="9NU3JOYnfdoBCGCPCBDB-9" vertex="1" connectable="0">
          <mxGeometry x="-0.6062" y="-2" relative="1" as="geometry">
            <mxPoint x="-17" y="-8" as="offset" />
          </mxGeometry>
        </mxCell>
        <mxCell id="fUXaf3c8tL8dAXFwkJp--46" value="bit_count" style="rounded=0;whiteSpace=wrap;html=1;direction=south;container=0;" parent="1" vertex="1">
          <mxGeometry x="670" y="510" width="50" height="130" as="geometry" />
        </mxCell>
        <mxCell id="fUXaf3c8tL8dAXFwkJp--47" value="" style="triangle;whiteSpace=wrap;html=1;container=0;" parent="1" vertex="1">
          <mxGeometry x="670" y="620" width="10" height="20" as="geometry" />
        </mxCell>
        <mxCell id="fUXaf3c8tL8dAXFwkJp--52" value="" style="endArrow=classic;html=1;rounded=0;strokeWidth=1;startSize=6;opacity=70;jumpSize=1;strokeColor=default;shadow=1;exitX=0.5;exitY=0;exitDx=0;exitDy=0;" parent="1" source="fUXaf3c8tL8dAXFwkJp--50" target="fUXaf3c8tL8dAXFwkJp--53" edge="1">
          <mxGeometry width="50" height="50" relative="1" as="geometry">
            <mxPoint x="785" y="510" as="sourcePoint" />
            <mxPoint x="630" y="530" as="targetPoint" />
            <Array as="points">
              <mxPoint x="752" y="490" />
              <mxPoint x="640" y="490" />
            </Array>
          </mxGeometry>
        </mxCell>
        <mxCell id="fUXaf3c8tL8dAXFwkJp--53" value="" style="ellipse;whiteSpace=wrap;html=1;container=0;" parent="1" vertex="1">
          <mxGeometry x="630" y="520" width="20" height="20" as="geometry" />
        </mxCell>
        <mxCell id="fUXaf3c8tL8dAXFwkJp--54" value="+" style="text;html=1;align=center;verticalAlign=middle;whiteSpace=wrap;rounded=0;container=0;" parent="1" vertex="1">
          <mxGeometry x="635" y="522.5" width="10" height="15" as="geometry" />
        </mxCell>
        <mxCell id="fUXaf3c8tL8dAXFwkJp--55" value="" style="endArrow=classic;html=1;rounded=0;strokeWidth=1;startSize=6;opacity=70;jumpSize=1;strokeColor=default;shadow=1;entryX=0.5;entryY=1;entryDx=0;entryDy=0;" parent="1" target="fUXaf3c8tL8dAXFwkJp--53" edge="1">
          <mxGeometry width="50" height="50" relative="1" as="geometry">
            <mxPoint x="640" y="560" as="sourcePoint" />
            <mxPoint x="620" y="500" as="targetPoint" />
          </mxGeometry>
        </mxCell>
        <mxCell id="fUXaf3c8tL8dAXFwkJp--56" value="1" style="text;html=1;align=center;verticalAlign=middle;whiteSpace=wrap;rounded=0;container=0;" parent="1" vertex="1">
          <mxGeometry x="630" y="565" width="20" height="10" as="geometry" />
        </mxCell>
        <mxCell id="fUXaf3c8tL8dAXFwkJp--57" value="" style="endArrow=classic;html=1;rounded=0;strokeWidth=1;startSize=6;opacity=70;jumpSize=1;strokeColor=default;shadow=1;" parent="1" edge="1">
          <mxGeometry width="50" height="50" relative="1" as="geometry">
            <mxPoint x="650" y="529.5" as="sourcePoint" />
            <mxPoint x="670" y="530" as="targetPoint" />
          </mxGeometry>
        </mxCell>
        <mxCell id="fUXaf3c8tL8dAXFwkJp--58" value="" style="endArrow=classic;html=1;rounded=0;strokeWidth=1;startSize=6;opacity=70;jumpSize=1;strokeColor=default;shadow=1;entryX=0.5;entryY=1;entryDx=0;entryDy=0;exitX=0.577;exitY=-0.08;exitDx=0;exitDy=0;exitPerimeter=0;" parent="1" source="fUXaf3c8tL8dAXFwkJp--46" target="fUXaf3c8tL8dAXFwkJp--50" edge="1">
          <mxGeometry width="50" height="50" relative="1" as="geometry">
            <mxPoint x="730" y="580" as="sourcePoint" />
            <mxPoint x="590" y="585" as="targetPoint" />
            <Array as="points">
              <mxPoint x="750" y="585" />
            </Array>
          </mxGeometry>
        </mxCell>
        <mxCell id="fUXaf3c8tL8dAXFwkJp--49" value="" style="endArrow=classic;html=1;rounded=0;strokeWidth=1;startSize=6;opacity=70;jumpSize=1;strokeColor=default;shadow=1;entryX=0;entryY=0.5;entryDx=0;entryDy=0;" parent="1" target="fUXaf3c8tL8dAXFwkJp--50" edge="1">
          <mxGeometry width="50" height="50" relative="1" as="geometry">
            <mxPoint x="720" y="534" as="sourcePoint" />
            <mxPoint x="740" y="534" as="targetPoint" />
          </mxGeometry>
        </mxCell>
        <mxCell id="fUXaf3c8tL8dAXFwkJp--50" value="" style="ellipse;whiteSpace=wrap;html=1;container=0;" parent="1" vertex="1">
          <mxGeometry x="744" y="520" width="16" height="30" as="geometry" />
        </mxCell>
        <mxCell id="fUXaf3c8tL8dAXFwkJp--51" value="=" style="text;html=1;align=center;verticalAlign=middle;whiteSpace=wrap;rounded=0;container=0;" parent="1" vertex="1">
          <mxGeometry x="746" y="530" width="14" height="10" as="geometry" />
        </mxCell>
        <mxCell id="fUXaf3c8tL8dAXFwkJp--32" value="baud_reg" style="rounded=0;whiteSpace=wrap;html=1;direction=south;container=0;" parent="1" vertex="1">
          <mxGeometry x="335" y="530" width="50" height="120" as="geometry" />
        </mxCell>
        <mxCell id="fUXaf3c8tL8dAXFwkJp--33" value="" style="triangle;whiteSpace=wrap;html=1;container=0;" parent="1" vertex="1">
          <mxGeometry x="335" y="630" width="10" height="20" as="geometry" />
        </mxCell>
        <mxCell id="fUXaf3c8tL8dAXFwkJp--38" value="" style="endArrow=classic;html=1;rounded=0;strokeWidth=1;startSize=6;opacity=70;jumpSize=1;strokeColor=default;shadow=1;exitX=0.5;exitY=0;exitDx=0;exitDy=0;" parent="1" source="fUXaf3c8tL8dAXFwkJp--36" target="fUXaf3c8tL8dAXFwkJp--39" edge="1">
          <mxGeometry width="50" height="50" relative="1" as="geometry">
            <mxPoint x="450" y="530" as="sourcePoint" />
            <mxPoint x="295" y="550" as="targetPoint" />
            <Array as="points">
              <mxPoint x="417" y="510" />
              <mxPoint x="305" y="510" />
            </Array>
          </mxGeometry>
        </mxCell>
        <mxCell id="fUXaf3c8tL8dAXFwkJp--39" value="" style="ellipse;whiteSpace=wrap;html=1;container=0;" parent="1" vertex="1">
          <mxGeometry x="295" y="540" width="20" height="20" as="geometry" />
        </mxCell>
        <mxCell id="fUXaf3c8tL8dAXFwkJp--40" value="+" style="text;html=1;align=center;verticalAlign=middle;whiteSpace=wrap;rounded=0;container=0;" parent="1" vertex="1">
          <mxGeometry x="300" y="542.5" width="10" height="15" as="geometry" />
        </mxCell>
        <mxCell id="fUXaf3c8tL8dAXFwkJp--41" value="" style="endArrow=classic;html=1;rounded=0;strokeWidth=1;startSize=6;opacity=70;jumpSize=1;strokeColor=default;shadow=1;entryX=0.5;entryY=1;entryDx=0;entryDy=0;" parent="1" target="fUXaf3c8tL8dAXFwkJp--39" edge="1">
          <mxGeometry width="50" height="50" relative="1" as="geometry">
            <mxPoint x="305" y="580" as="sourcePoint" />
            <mxPoint x="285" y="520" as="targetPoint" />
          </mxGeometry>
        </mxCell>
        <mxCell id="fUXaf3c8tL8dAXFwkJp--42" value="1" style="text;html=1;align=center;verticalAlign=middle;whiteSpace=wrap;rounded=0;container=0;" parent="1" vertex="1">
          <mxGeometry x="295" y="585" width="20" height="10" as="geometry" />
        </mxCell>
        <mxCell id="fUXaf3c8tL8dAXFwkJp--43" value="" style="endArrow=classic;html=1;rounded=0;strokeWidth=1;startSize=6;opacity=70;jumpSize=1;strokeColor=default;shadow=1;" parent="1" edge="1">
          <mxGeometry width="50" height="50" relative="1" as="geometry">
            <mxPoint x="315" y="549.5" as="sourcePoint" />
            <mxPoint x="335" y="550" as="targetPoint" />
          </mxGeometry>
        </mxCell>
        <mxCell id="fUXaf3c8tL8dAXFwkJp--44" value="" style="endArrow=classic;html=1;rounded=0;strokeWidth=1;startSize=6;opacity=70;jumpSize=1;strokeColor=default;shadow=1;entryX=0.5;entryY=1;entryDx=0;entryDy=0;exitX=0.75;exitY=0;exitDx=0;exitDy=0;" parent="1" source="fUXaf3c8tL8dAXFwkJp--32" target="fUXaf3c8tL8dAXFwkJp--36" edge="1">
          <mxGeometry width="50" height="50" relative="1" as="geometry">
            <mxPoint x="395" y="600" as="sourcePoint" />
            <mxPoint x="255" y="605" as="targetPoint" />
            <Array as="points">
              <mxPoint x="417" y="620" />
            </Array>
          </mxGeometry>
        </mxCell>
        <mxCell id="fUXaf3c8tL8dAXFwkJp--35" value="" style="endArrow=classic;html=1;rounded=0;strokeWidth=1;startSize=6;opacity=70;jumpSize=1;strokeColor=default;shadow=1;entryX=0;entryY=0.5;entryDx=0;entryDy=0;" parent="1" target="fUXaf3c8tL8dAXFwkJp--36" edge="1">
          <mxGeometry width="50" height="50" relative="1" as="geometry">
            <mxPoint x="385" y="554" as="sourcePoint" />
            <mxPoint x="405" y="554" as="targetPoint" />
          </mxGeometry>
        </mxCell>
        <mxCell id="fUXaf3c8tL8dAXFwkJp--36" value="" style="ellipse;whiteSpace=wrap;html=1;container=0;" parent="1" vertex="1">
          <mxGeometry x="409" y="540" width="16" height="30" as="geometry" />
        </mxCell>
        <mxCell id="fUXaf3c8tL8dAXFwkJp--37" value="=" style="text;html=1;align=center;verticalAlign=middle;whiteSpace=wrap;rounded=0;container=0;" parent="1" vertex="1">
          <mxGeometry x="411" y="550" width="14" height="10" as="geometry" />
        </mxCell>
        <mxCell id="Ki-iK-O01lwPalJUnk5m-45" value="" style="shape=xor;whiteSpace=wrap;html=1;container=0;" parent="1" vertex="1">
          <mxGeometry x="420" y="240" width="40" height="50" as="geometry" />
        </mxCell>
        <mxCell id="Ki-iK-O01lwPalJUnk5m-46" value="" style="endArrow=none;html=1;rounded=0;curved=1;" parent="1" edge="1">
          <mxGeometry width="50" height="50" relative="1" as="geometry">
            <mxPoint x="410" y="285" as="sourcePoint" />
            <mxPoint x="410" y="245" as="targetPoint" />
            <Array as="points">
              <mxPoint x="440" y="265" />
            </Array>
          </mxGeometry>
        </mxCell>
        <mxCell id="Ki-iK-O01lwPalJUnk5m-47" value="" style="endArrow=classic;html=1;rounded=0;strokeWidth=1;startSize=6;opacity=70;jumpSize=1;strokeColor=default;shadow=1;entryX=0.25;entryY=1;entryDx=0;entryDy=0;" parent="1" target="Ki-iK-O01lwPalJUnk5m-51" edge="1">
          <mxGeometry width="50" height="50" relative="1" as="geometry">
            <mxPoint x="460" y="264.5" as="sourcePoint" />
            <mxPoint x="517" y="250" as="targetPoint" />
            <Array as="points">
              <mxPoint x="470" y="265" />
              <mxPoint x="470" y="255" />
            </Array>
          </mxGeometry>
        </mxCell>
        <mxCell id="Ki-iK-O01lwPalJUnk5m-48" value="" style="endArrow=classic;html=1;rounded=0;strokeWidth=1;startSize=6;opacity=70;jumpSize=1;strokeColor=default;shadow=1;entryX=0;entryY=0.5;entryDx=0;entryDy=0;" parent="1" target="Ki-iK-O01lwPalJUnk5m-54" edge="1">
          <mxGeometry width="50" height="50" relative="1" as="geometry">
            <mxPoint x="470" y="260" as="sourcePoint" />
            <mxPoint x="500" y="300" as="targetPoint" />
            <Array as="points">
              <mxPoint x="470" y="295" />
            </Array>
          </mxGeometry>
        </mxCell>
        <mxCell id="Ki-iK-O01lwPalJUnk5m-54" value="" style="ellipse;whiteSpace=wrap;html=1;aspect=fixed;container=0;" parent="1" vertex="1">
          <mxGeometry x="510" y="290" width="10" height="10" as="geometry" />
        </mxCell>
        <mxCell id="Ki-iK-O01lwPalJUnk5m-51" value="" style="shape=trapezoid;perimeter=trapezoidPerimeter;whiteSpace=wrap;html=1;fixedSize=1;direction=south;container=0;" parent="1" vertex="1">
          <mxGeometry x="520" y="230" width="20" height="100" as="geometry" />
        </mxCell>
        <mxCell id="Ki-iK-O01lwPalJUnk5m-53" value="0" style="text;html=1;align=center;verticalAlign=middle;whiteSpace=wrap;rounded=0;container=0;" parent="1" vertex="1">
          <mxGeometry x="525" y="240" width="10" height="28.57142857142857" as="geometry" />
        </mxCell>
        <mxCell id="Ki-iK-O01lwPalJUnk5m-52" value="1" style="text;html=1;align=center;verticalAlign=middle;whiteSpace=wrap;rounded=0;container=0;" parent="1" vertex="1">
          <mxGeometry x="520" y="290.0014285714286" width="20" height="14.285714285714285" as="geometry" />
        </mxCell>
        <mxCell id="S0rmG3F3ooWsM7sMJUz2-1" value="sample" style="text;html=1;align=center;verticalAlign=middle;resizable=0;points=[];autosize=1;strokeColor=none;fillColor=none;container=0;" vertex="1" parent="1">
          <mxGeometry x="300" y="407.5" width="60" height="30" as="geometry" />
        </mxCell>
        <mxCell id="S0rmG3F3ooWsM7sMJUz2-2" value="sample&lt;br&gt;counter" style="rounded=0;whiteSpace=wrap;html=1;direction=south;container=0;" vertex="1" parent="1">
          <mxGeometry x="205" y="407.5" width="50" height="130" as="geometry" />
        </mxCell>
        <mxCell id="S0rmG3F3ooWsM7sMJUz2-3" value="" style="triangle;whiteSpace=wrap;html=1;container=0;" vertex="1" parent="1">
          <mxGeometry x="205" y="517.5" width="10" height="20" as="geometry" />
        </mxCell>
        <mxCell id="S0rmG3F3ooWsM7sMJUz2-4" value="" style="endArrow=classic;html=1;rounded=0;strokeWidth=1;startSize=6;opacity=70;jumpSize=1;strokeColor=default;shadow=1;exitX=0.5;exitY=0;exitDx=0;exitDy=0;" edge="1" parent="1" source="S0rmG3F3ooWsM7sMJUz2-12" target="S0rmG3F3ooWsM7sMJUz2-5">
          <mxGeometry width="50" height="50" relative="1" as="geometry">
            <mxPoint x="320" y="407.5" as="sourcePoint" />
            <mxPoint x="165" y="427.5" as="targetPoint" />
            <Array as="points">
              <mxPoint x="287" y="387.5" />
              <mxPoint x="175" y="387.5" />
            </Array>
          </mxGeometry>
        </mxCell>
        <mxCell id="S0rmG3F3ooWsM7sMJUz2-5" value="" style="ellipse;whiteSpace=wrap;html=1;container=0;" vertex="1" parent="1">
          <mxGeometry x="165" y="417.5" width="20" height="20" as="geometry" />
        </mxCell>
        <mxCell id="S0rmG3F3ooWsM7sMJUz2-6" value="+" style="text;html=1;align=center;verticalAlign=middle;whiteSpace=wrap;rounded=0;container=0;" vertex="1" parent="1">
          <mxGeometry x="170" y="420" width="10" height="15" as="geometry" />
        </mxCell>
        <mxCell id="S0rmG3F3ooWsM7sMJUz2-7" value="" style="endArrow=classic;html=1;rounded=0;strokeWidth=1;startSize=6;opacity=70;jumpSize=1;strokeColor=default;shadow=1;entryX=0.5;entryY=1;entryDx=0;entryDy=0;" edge="1" parent="1" target="S0rmG3F3ooWsM7sMJUz2-5">
          <mxGeometry width="50" height="50" relative="1" as="geometry">
            <mxPoint x="175" y="457.5" as="sourcePoint" />
            <mxPoint x="155" y="397.5" as="targetPoint" />
          </mxGeometry>
        </mxCell>
        <mxCell id="S0rmG3F3ooWsM7sMJUz2-8" value="1" style="text;html=1;align=center;verticalAlign=middle;whiteSpace=wrap;rounded=0;container=0;" vertex="1" parent="1">
          <mxGeometry x="165" y="462.5" width="20" height="10" as="geometry" />
        </mxCell>
        <mxCell id="S0rmG3F3ooWsM7sMJUz2-9" value="" style="endArrow=classic;html=1;rounded=0;strokeWidth=1;startSize=6;opacity=70;jumpSize=1;strokeColor=default;shadow=1;" edge="1" parent="1">
          <mxGeometry width="50" height="50" relative="1" as="geometry">
            <mxPoint x="185" y="427" as="sourcePoint" />
            <mxPoint x="205" y="427.5" as="targetPoint" />
          </mxGeometry>
        </mxCell>
        <mxCell id="S0rmG3F3ooWsM7sMJUz2-10" value="" style="endArrow=classic;html=1;rounded=0;strokeWidth=1;startSize=6;opacity=70;jumpSize=1;strokeColor=default;shadow=1;entryX=0.5;entryY=1;entryDx=0;entryDy=0;exitX=0.577;exitY=-0.08;exitDx=0;exitDy=0;exitPerimeter=0;" edge="1" parent="1" source="S0rmG3F3ooWsM7sMJUz2-2" target="S0rmG3F3ooWsM7sMJUz2-12">
          <mxGeometry width="50" height="50" relative="1" as="geometry">
            <mxPoint x="265" y="477.5" as="sourcePoint" />
            <mxPoint x="125" y="482.5" as="targetPoint" />
            <Array as="points">
              <mxPoint x="285" y="482.5" />
            </Array>
          </mxGeometry>
        </mxCell>
        <mxCell id="S0rmG3F3ooWsM7sMJUz2-11" value="" style="endArrow=classic;html=1;rounded=0;strokeWidth=1;startSize=6;opacity=70;jumpSize=1;strokeColor=default;shadow=1;entryX=0;entryY=0.5;entryDx=0;entryDy=0;" edge="1" parent="1" target="S0rmG3F3ooWsM7sMJUz2-12">
          <mxGeometry width="50" height="50" relative="1" as="geometry">
            <mxPoint x="255" y="431.5" as="sourcePoint" />
            <mxPoint x="275" y="431.5" as="targetPoint" />
          </mxGeometry>
        </mxCell>
        <mxCell id="S0rmG3F3ooWsM7sMJUz2-12" value="" style="ellipse;whiteSpace=wrap;html=1;container=0;" vertex="1" parent="1">
          <mxGeometry x="279" y="417.5" width="16" height="30" as="geometry" />
        </mxCell>
        <mxCell id="S0rmG3F3ooWsM7sMJUz2-13" value="=" style="text;html=1;align=center;verticalAlign=middle;whiteSpace=wrap;rounded=0;container=0;" vertex="1" parent="1">
          <mxGeometry x="281" y="427.5" width="14" height="10" as="geometry" />
        </mxCell>
        <mxCell id="S0rmG3F3ooWsM7sMJUz2-14" value="" style="endArrow=classic;html=1;rounded=0;strokeColor=light-dark(#316d3d, #ededed);strokeWidth=3;entryX=0.75;entryY=1;entryDx=0;entryDy=0;exitX=0.02;exitY=0;exitDx=0;exitDy=0;exitPerimeter=0;" edge="1" parent="1" source="fUXaf3c8tL8dAXFwkJp--25">
          <mxGeometry width="50" height="50" relative="1" as="geometry">
            <mxPoint x="80" y="750" as="sourcePoint" />
            <mxPoint x="205" y="505" as="targetPoint" />
            <Array as="points">
              <mxPoint x="80" y="505" />
            </Array>
          </mxGeometry>
        </mxCell>
        <mxCell id="S0rmG3F3ooWsM7sMJUz2-15" value="sample_en" style="edgeLabel;html=1;align=center;verticalAlign=middle;resizable=0;points=[];" vertex="1" connectable="0" parent="S0rmG3F3ooWsM7sMJUz2-14">
          <mxGeometry x="0.4973" y="1" relative="1" as="geometry">
            <mxPoint x="-12" y="-14" as="offset" />
          </mxGeometry>
        </mxCell>
      </root>
    </mxGraphModel>
  </diagram>
  <diagram id="hqcacZaWT376cXRWCEjd" name="rx_controller">
    <mxGraphModel dx="870" dy="524" grid="1" gridSize="10" guides="1" tooltips="1" connect="1" arrows="1" fold="1" page="1" pageScale="1" pageWidth="850" pageHeight="1100" math="0" shadow="0">
      <root>
        <mxCell id="0" />
        <mxCell id="1" parent="0" />
        <mxCell id="TDjhoYfTvpKM7bdY4tR2-1" value="RX_IDEAL" style="ellipse;whiteSpace=wrap;html=1;" parent="1" vertex="1">
          <mxGeometry x="360" y="190" width="120" height="80" as="geometry" />
        </mxCell>
        <mxCell id="TDjhoYfTvpKM7bdY4tR2-3" value="" style="endArrow=classic;html=1;rounded=0;curved=1;" parent="1" source="CccFG17yGWcwYw0sbnpV-1" target="TDjhoYfTvpKM7bdY4tR2-4" edge="1">
          <mxGeometry width="50" height="50" relative="1" as="geometry">
            <mxPoint x="400" y="290" as="sourcePoint" />
            <mxPoint x="640" y="430" as="targetPoint" />
            <Array as="points">
              <mxPoint x="870" y="340" />
            </Array>
          </mxGeometry>
        </mxCell>
        <mxCell id="TDjhoYfTvpKM7bdY4tR2-4" value="RX_DATA_BITS&lt;br&gt;-----------------------&lt;br&gt;&lt;span style=&quot;font-size: 11px; text-wrap-mode: nowrap; background-color: rgb(255, 255, 255);&quot;&gt;sample_en&lt;br&gt;&lt;span style=&quot;background-color: rgb(251, 251, 251);&quot;&gt;Rx_Valid=bit_count &amp;amp; baud_rate&lt;/span&gt;&lt;br&gt;baud_rate_enable&lt;/span&gt;" style="ellipse;whiteSpace=wrap;html=1;" parent="1" vertex="1">
          <mxGeometry x="730" y="440" width="190" height="170" as="geometry" />
        </mxCell>
        <mxCell id="TDjhoYfTvpKM7bdY4tR2-5" value="" style="endArrow=classic;html=1;rounded=0;exitX=0.308;exitY=0.975;exitDx=0;exitDy=0;exitPerimeter=0;curved=1;" parent="1" source="TDjhoYfTvpKM7bdY4tR2-4" target="TDjhoYfTvpKM7bdY4tR2-6" edge="1">
          <mxGeometry width="50" height="50" relative="1" as="geometry">
            <mxPoint x="680" y="540" as="sourcePoint" />
            <mxPoint x="480" y="592" as="targetPoint" />
            <Array as="points">
              <mxPoint x="720" y="710" />
            </Array>
          </mxGeometry>
        </mxCell>
        <mxCell id="Q-sU_MXYlLJM6P04SO7g-1" value="bit_count &amp;amp; baud_rate" style="edgeLabel;html=1;align=center;verticalAlign=middle;resizable=0;points=[];" parent="TDjhoYfTvpKM7bdY4tR2-5" vertex="1" connectable="0">
          <mxGeometry x="-0.0969" y="-14" relative="1" as="geometry">
            <mxPoint x="37" y="14" as="offset" />
          </mxGeometry>
        </mxCell>
        <mxCell id="TDjhoYfTvpKM7bdY4tR2-6" value="RX_PARITY&lt;br&gt;&lt;span style=&quot;font-size: 11px; text-wrap-mode: nowrap; background-color: rgb(255, 255, 255);&quot;&gt;______________&lt;/span&gt;&lt;div style=&quot;font-size: 11px; text-wrap-mode: nowrap;&quot;&gt;baud_rate_enable&lt;br&gt;status_reg_en.parity&lt;br&gt;parity=data_in&lt;br&gt;&lt;/div&gt;" style="ellipse;whiteSpace=wrap;html=1;" parent="1" vertex="1">
          <mxGeometry x="390" y="660" width="140" height="100" as="geometry" />
        </mxCell>
        <mxCell id="TDjhoYfTvpKM7bdY4tR2-8" value="" style="endArrow=classic;html=1;rounded=0;exitX=0;exitY=0.35;exitDx=0;exitDy=0;exitPerimeter=0;curved=1;" parent="1" source="TDjhoYfTvpKM7bdY4tR2-6" target="TDjhoYfTvpKM7bdY4tR2-9" edge="1">
          <mxGeometry width="50" height="50" relative="1" as="geometry">
            <mxPoint x="400" y="500" as="sourcePoint" />
            <mxPoint x="260" y="520" as="targetPoint" />
            <Array as="points">
              <mxPoint x="240" y="690" />
            </Array>
          </mxGeometry>
        </mxCell>
        <mxCell id="8ZJGCf3k3bRbTv9vqLE5-4" value="&amp;nbsp;baud_rate" style="edgeLabel;html=1;align=center;verticalAlign=middle;resizable=0;points=[];" parent="TDjhoYfTvpKM7bdY4tR2-8" vertex="1" connectable="0">
          <mxGeometry x="-0.342" y="-16" relative="1" as="geometry">
            <mxPoint x="-39" y="14" as="offset" />
          </mxGeometry>
        </mxCell>
        <mxCell id="TDjhoYfTvpKM7bdY4tR2-9" value="RX_STOP_BIT&lt;br&gt;-----------------------&lt;br&gt;&lt;span style=&quot;font-size: 11px; text-wrap-mode: nowrap;&quot;&gt;baud_rate_enable&lt;/span&gt;&lt;span style=&quot;font-size: 11px; text-wrap-mode: nowrap;&quot;&gt;&lt;br&gt;status_reg_en.stop_bit&lt;br&gt;&lt;/span&gt;&lt;span style=&quot;color: light-dark(rgb(0, 0, 0), rgb(255, 255, 255)); font-size: 11px; text-wrap-mode: nowrap; background-color: light-dark(#ffffff, var(--ge-dark-color, #121212));&quot;&gt;stop_bit_error =!data_in&lt;/span&gt;" style="ellipse;whiteSpace=wrap;html=1;" parent="1" vertex="1">
          <mxGeometry x="100" y="460" width="160" height="110" as="geometry" />
        </mxCell>
        <mxCell id="TDjhoYfTvpKM7bdY4tR2-10" value="" style="endArrow=classic;html=1;rounded=0;exitX=0.5;exitY=0;exitDx=0;exitDy=0;entryX=0.05;entryY=0.763;entryDx=0;entryDy=0;entryPerimeter=0;curved=1;" parent="1" source="TDjhoYfTvpKM7bdY4tR2-9" target="TDjhoYfTvpKM7bdY4tR2-1" edge="1">
          <mxGeometry width="50" height="50" relative="1" as="geometry">
            <mxPoint x="400" y="500" as="sourcePoint" />
            <mxPoint x="450" y="450" as="targetPoint" />
            <Array as="points">
              <mxPoint x="170" y="250" />
            </Array>
          </mxGeometry>
        </mxCell>
        <mxCell id="bnQGebRVB1xE28NCuSaI-1" value="&lt;span style=&quot;background-color: rgb(251, 251, 251);&quot;&gt;baud_rate&lt;/span&gt;" style="edgeLabel;html=1;align=center;verticalAlign=middle;resizable=0;points=[];" parent="TDjhoYfTvpKM7bdY4tR2-10" vertex="1" connectable="0">
          <mxGeometry x="-0.2994" y="-39" relative="1" as="geometry">
            <mxPoint x="-32" y="-16" as="offset" />
          </mxGeometry>
        </mxCell>
        <mxCell id="TDjhoYfTvpKM7bdY4tR2-12" value="" style="endArrow=classic;html=1;rounded=0;exitX=0.275;exitY=0.05;exitDx=0;exitDy=0;exitPerimeter=0;curved=1;entryX=1;entryY=0;entryDx=0;entryDy=0;" parent="1" source="TDjhoYfTvpKM7bdY4tR2-1" target="TDjhoYfTvpKM7bdY4tR2-1" edge="1">
          <mxGeometry width="50" height="50" relative="1" as="geometry">
            <mxPoint x="400" y="300" as="sourcePoint" />
            <mxPoint x="500" y="150" as="targetPoint" />
            <Array as="points">
              <mxPoint x="420" y="110" />
            </Array>
          </mxGeometry>
        </mxCell>
        <mxCell id="3tDUxpG8ckmac0o2Y2p0-1" value="data_in" style="edgeLabel;html=1;align=center;verticalAlign=middle;resizable=0;points=[];" parent="TDjhoYfTvpKM7bdY4tR2-12" vertex="1" connectable="0">
          <mxGeometry x="-0.5703" y="-12" relative="1" as="geometry">
            <mxPoint x="8" y="-19" as="offset" />
          </mxGeometry>
        </mxCell>
        <mxCell id="CccFG17yGWcwYw0sbnpV-2" value="" style="endArrow=classic;html=1;rounded=0;exitX=1;exitY=0.5;exitDx=0;exitDy=0;curved=1;" parent="1" source="TDjhoYfTvpKM7bdY4tR2-1" target="CccFG17yGWcwYw0sbnpV-1" edge="1">
          <mxGeometry width="50" height="50" relative="1" as="geometry">
            <mxPoint x="480" y="230" as="sourcePoint" />
            <mxPoint x="701" y="412" as="targetPoint" />
            <Array as="points" />
          </mxGeometry>
        </mxCell>
        <mxCell id="CccFG17yGWcwYw0sbnpV-3" value="!data_in, uart_rx_en_en&lt;br&gt;______________&lt;div&gt;baud_rate_enable&lt;/div&gt;" style="edgeLabel;html=1;align=center;verticalAlign=middle;resizable=0;points=[];" parent="CccFG17yGWcwYw0sbnpV-2" vertex="1" connectable="0">
          <mxGeometry x="-0.5318" y="-12" relative="1" as="geometry">
            <mxPoint x="82" y="-39" as="offset" />
          </mxGeometry>
        </mxCell>
        <mxCell id="CccFG17yGWcwYw0sbnpV-1" value="RX_START_BIT&lt;br&gt;&lt;span style=&quot;background-color: rgb(251, 251, 251);&quot;&gt;-----------------------&lt;/span&gt;&lt;br style=&quot;background-color: rgb(251, 251, 251);&quot;&gt;&lt;span style=&quot;font-size: 11px; text-wrap-mode: nowrap; background-color: rgb(255, 255, 255);&quot;&gt;baud_rate_enable&lt;/span&gt;" style="ellipse;whiteSpace=wrap;html=1;" parent="1" vertex="1">
          <mxGeometry x="690" y="230" width="120" height="80" as="geometry" />
        </mxCell>
        <mxCell id="CccFG17yGWcwYw0sbnpV-4" value="&lt;span style=&quot;color: rgb(0, 0, 0); font-family: Helvetica; font-size: 11px; font-style: normal; font-variant-ligatures: normal; font-variant-caps: normal; font-weight: 400; letter-spacing: normal; orphans: 2; text-align: center; text-indent: 0px; text-transform: none; widows: 2; word-spacing: 0px; -webkit-text-stroke-width: 0px; white-space: nowrap; background-color: rgb(255, 255, 255); text-decoration-thickness: initial; text-decoration-style: initial; text-decoration-color: initial; display: inline !important; float: none;&quot;&gt;baud_rate&lt;/span&gt;" style="text;whiteSpace=wrap;html=1;" parent="1" vertex="1">
          <mxGeometry x="850" y="380" width="100" height="30" as="geometry" />
        </mxCell>
      </root>
    </mxGraphModel>
  </diagram>
</mxfile>
